<svg xmlns="http://www.w3.org/2000/svg" viewBox="0 0 155.72 80.87"><defs><style>.a201fa04-cd41-4c1f-b771-a26d69db93db{fill:#6b6b6b;}.aca1d4d2-e1ae-4e1d-905d-e32fa721868e{fill:#231f20;}.a4d3e21d-2471-4d02-8252-0380ced837c4{fill:#fff;}.abcb3dc7-5720-4d37-9cf2-68b6fd2d093b{fill:#efb31d;}</style></defs><title>logo</title><g id="e719be04-b8eb-4df8-9841-2b18affaf152" data-name="Acc"><path class="a201fa04-cd41-4c1f-b771-a26d69db93db" d="M145.48,222.79V224a3.23,3.23,0,0,0-1.65-.43,2,2,0,0,0-1.5.61,2.54,2.54,0,0,0,0,3.28,2.12,2.12,0,0,0,1.57.6,2.57,2.57,0,0,0,1.59-.49v1.24a3.16,3.16,0,0,1-1.71.39,3.33,3.33,0,0,1-2.42-.93,3.22,3.22,0,0,1-1-2.45,3.24,3.24,0,0,1,3.37-3.39A3.36,3.36,0,0,1,145.48,222.79Z" transform="translate(-86.64 -164.8)"/><path class="a201fa04-cd41-4c1f-b771-a26d69db93db" d="M146.57,225.8a3.56,3.56,0,0,1,.84-2.47,3.25,3.25,0,0,1,4.55,0,4,4,0,0,1,0,4.93,3.24,3.24,0,0,1-4.54,0A3.49,3.49,0,0,1,146.57,225.8Zm1.32,0a2.55,2.55,0,0,0,.49,1.65,1.73,1.73,0,0,0,2.62,0,3.08,3.08,0,0,0,0-3.3,1.58,1.58,0,0,0-1.32-.61,1.56,1.56,0,0,0-1.31.61A2.57,2.57,0,0,0,147.89,225.8Z" transform="translate(-86.64 -164.8)"/><path class="a201fa04-cd41-4c1f-b771-a26d69db93db" d="M154.11,229.12v-6.6h1.4l1.58,2.75c.26.45.5.87.7,1.26s.35.67.42.83l.11.24a23.29,23.29,0,0,1-.08-2.33v-2.75h1.24v6.6h-1.41l-1.6-2.74c-.26-.43-.49-.84-.7-1.24s-.34-.68-.42-.86l-.12-.27a21.6,21.6,0,0,1,.11,2.36v2.75Z" transform="translate(-86.64 -164.8)"/><path class="a201fa04-cd41-4c1f-b771-a26d69db93db" d="M165.85,222.79V224a3.23,3.23,0,0,0-1.65-.43,2,2,0,0,0-1.5.61,2.54,2.54,0,0,0,0,3.28,2.12,2.12,0,0,0,1.57.6,2.57,2.57,0,0,0,1.59-.49v1.24a3.18,3.18,0,0,1-1.71.39,3.31,3.31,0,0,1-2.42-.93,3.23,3.23,0,0,1-1-2.45,3.25,3.25,0,0,1,3.38-3.39A3.36,3.36,0,0,1,165.85,222.79Z" transform="translate(-86.64 -164.8)"/><path class="a201fa04-cd41-4c1f-b771-a26d69db93db" d="M168.44,228.11h2.69v1H167.2v-6.6h3.89v1h-2.65v1.79h2.36v1h-2.36Z" transform="translate(-86.64 -164.8)"/><path class="a201fa04-cd41-4c1f-b771-a26d69db93db" d="M172.56,222.52h2.07a2.56,2.56,0,0,1,1.79.61,2.18,2.18,0,0,1,0,3.16,2.6,2.6,0,0,1-1.74.59h-.86v2.24h-1.24Zm1.24,3.36h.69a1.42,1.42,0,0,0,1-.32,1.18,1.18,0,0,0,.33-.88,1.09,1.09,0,0,0-.33-.84,1.37,1.37,0,0,0-1-.31h-.72Z" transform="translate(-86.64 -164.8)"/><path class="a201fa04-cd41-4c1f-b771-a26d69db93db" d="M182.36,222.52v1h-1.67v5.58h-1.24v-5.58h-1.68v-1Z" transform="translate(-86.64 -164.8)"/><path class="a201fa04-cd41-4c1f-b771-a26d69db93db" d="M187.16,222.79V224a3,3,0,0,0-1.56-.44,1.16,1.16,0,0,0-.72.2.67.67,0,0,0,0,1.07,4.48,4.48,0,0,0,.83.46c.26.12.48.22.64.31a3.45,3.45,0,0,1,.53.37,1.3,1.3,0,0,1,.43.56,1.79,1.79,0,0,1,.15.75,1.72,1.72,0,0,1-.64,1.41,2.55,2.55,0,0,1-1.66.52,3.7,3.7,0,0,1-1.85-.42v-1.27a3.09,3.09,0,0,0,1.85.61,1.09,1.09,0,0,0,.72-.22.72.72,0,0,0,.27-.59.61.61,0,0,0-.34-.59l-.33-.19c-.07,0-.23-.12-.46-.22l-.15-.07a6.3,6.3,0,0,1-.59-.3,3.84,3.84,0,0,1-.49-.35,1.5,1.5,0,0,1-.39-.54,1.81,1.81,0,0,1-.13-.72,1.64,1.64,0,0,1,.62-1.35,2.5,2.5,0,0,1,1.65-.51A3.74,3.74,0,0,1,187.16,222.79Z" transform="translate(-86.64 -164.8)"/><path class="a201fa04-cd41-4c1f-b771-a26d69db93db" d="M197.4,229.12h-1.49l-.49-.46a3.34,3.34,0,0,1-1.9.54,3.24,3.24,0,0,1-2-.53,1.58,1.58,0,0,1-.72-1.32,1.47,1.47,0,0,1,.36-1,2.45,2.45,0,0,1,1.11-.67,2.39,2.39,0,0,1-.77-1.54,1.6,1.6,0,0,1,.56-1.29,2.22,2.22,0,0,1,1.45-.47,2.26,2.26,0,0,1,1.5.49,1.62,1.62,0,0,1,.55,1.3,1.68,1.68,0,0,1-.33,1,3,3,0,0,1-1.13.82l1.23,1.19a1.89,1.89,0,0,0,.22-.89h1.08a3,3,0,0,1-.52,1.64Zm-4.29-2.68-.09-.09a1.8,1.8,0,0,0-.74.41.74.74,0,0,0-.22.55.75.75,0,0,0,.41.65,2,2,0,0,0,1.05.24,2.36,2.36,0,0,0,1.13-.27Zm.44-3.08a.84.84,0,0,0-.57.2.71.71,0,0,0-.23.56,2.11,2.11,0,0,0,.75,1.22c.61-.31.92-.69.92-1.13a.86.86,0,0,0-.23-.62A.88.88,0,0,0,193.55,223.36Z" transform="translate(-86.64 -164.8)"/><path class="a201fa04-cd41-4c1f-b771-a26d69db93db" d="M200.54,222.52h2.15a3.3,3.3,0,0,1,2.42.91,3.07,3.07,0,0,1,.94,2.3,3.38,3.38,0,0,1-.91,2.46,3.27,3.27,0,0,1-2.45.93h-2.15Zm1.26,5.57h.87a1.93,1.93,0,0,0,1.58-.64,2.59,2.59,0,0,0,.54-1.72,2.21,2.21,0,0,0-.57-1.56,2.06,2.06,0,0,0-1.57-.61h-.85Z" transform="translate(-86.64 -164.8)"/><path class="a201fa04-cd41-4c1f-b771-a26d69db93db" d="M209.18,228.11h2.69v1h-3.94v-6.6h3.9v1h-2.65v1.79h2.36v1h-2.36Z" transform="translate(-86.64 -164.8)"/><path class="a201fa04-cd41-4c1f-b771-a26d69db93db" d="M217.56,222.79V224a3,3,0,0,0-1.57-.44,1.16,1.16,0,0,0-.72.2.67.67,0,0,0-.26.53.64.64,0,0,0,.28.54,5,5,0,0,0,.84.46c.26.12.47.22.63.31a3.07,3.07,0,0,1,.54.37,1.48,1.48,0,0,1,.43.56,2,2,0,0,1,.14.75,1.74,1.74,0,0,1-.63,1.41,2.55,2.55,0,0,1-1.66.52,3.7,3.7,0,0,1-1.85-.42v-1.27a3,3,0,0,0,1.84.61,1.09,1.09,0,0,0,.72-.22.7.7,0,0,0,.28-.59.62.62,0,0,0-.07-.31.74.74,0,0,0-.28-.28l-.32-.19c-.08,0-.23-.12-.47-.22l-.14-.07a5.25,5.25,0,0,1-.59-.3,3.24,3.24,0,0,1-.49-.35,1.41,1.41,0,0,1-.4-.54,1.81,1.81,0,0,1-.13-.72,1.67,1.67,0,0,1,.62-1.35,2.54,2.54,0,0,1,1.65-.51A3.79,3.79,0,0,1,217.56,222.79Z" transform="translate(-86.64 -164.8)"/><path class="a201fa04-cd41-4c1f-b771-a26d69db93db" d="M219.82,229.12v-6.6h1.23v6.6Z" transform="translate(-86.64 -164.8)"/><path class="a201fa04-cd41-4c1f-b771-a26d69db93db" d="M228.77,225.27v3.18h0v.1a3.77,3.77,0,0,1-2.25.65,3.51,3.51,0,0,1-2.53-.91,3.6,3.6,0,0,1,0-4.95,3.53,3.53,0,0,1,2.51-.94,4.13,4.13,0,0,1,1.93.42v1.27a3.66,3.66,0,0,0-1.91-.54,2.12,2.12,0,0,0-1.6.62,2.26,2.26,0,0,0-.61,1.64,2.23,2.23,0,0,0,.6,1.65,2.17,2.17,0,0,0,1.63.6,3,3,0,0,0,1-.17v-1.56h-1.22v-1.06Z" transform="translate(-86.64 -164.8)"/><path class="a201fa04-cd41-4c1f-b771-a26d69db93db" d="M230.86,229.12v-6.6h1.4l1.58,2.75c.26.45.5.87.7,1.26s.35.67.42.83l.11.24a23.29,23.29,0,0,1-.08-2.33v-2.75h1.24v6.6h-1.41l-1.6-2.74c-.26-.43-.49-.84-.69-1.24s-.35-.68-.43-.86L232,224a21.6,21.6,0,0,1,.11,2.36v2.75Z" transform="translate(-86.64 -164.8)"/><path class="a201fa04-cd41-4c1f-b771-a26d69db93db" d="M242.05,222.79V224a3,3,0,0,0-1.57-.44,1.16,1.16,0,0,0-.72.2.67.67,0,0,0,0,1.07,5,5,0,0,0,.84.46l.64.31a3.45,3.45,0,0,1,.53.37,1.48,1.48,0,0,1,.43.56,2,2,0,0,1,.14.75,1.74,1.74,0,0,1-.63,1.41,2.55,2.55,0,0,1-1.66.52,3.7,3.7,0,0,1-1.85-.42v-1.27a3,3,0,0,0,1.84.61,1.09,1.09,0,0,0,.72-.22.7.7,0,0,0,.28-.59A.62.62,0,0,0,241,227a.74.74,0,0,0-.28-.28l-.32-.19c-.08,0-.23-.12-.47-.22l-.14-.07a5.25,5.25,0,0,1-.59-.3,3.84,3.84,0,0,1-.49-.35,1.41,1.41,0,0,1-.4-.54,1.81,1.81,0,0,1-.13-.72,1.67,1.67,0,0,1,.62-1.35,2.54,2.54,0,0,1,1.65-.51A3.79,3.79,0,0,1,242.05,222.79Z" transform="translate(-86.64 -164.8)"/></g><g id="f1e032f0-5875-4a26-80cc-3ffdbcfe7b8e" data-name="Layer 11"><path class="aca1d4d2-e1ae-4e1d-905d-e32fa721868e" d="M157.69,217.53V193H149.6v-4.29h20.87V193h-8.33v24.57Z" transform="translate(-86.64 -164.8)"/><path class="aca1d4d2-e1ae-4e1d-905d-e32fa721868e" d="M194.87,197.86a8.33,8.33,0,0,1-1.55,4.83,9.28,9.28,0,0,1-4,3.29L196,217.57l-5.4,0-6.1-10.85h-6.59v10.85h-4.46V188.67h12.29a9.27,9.27,0,0,1,7.77,4.29A8.81,8.81,0,0,1,194.87,197.86ZM185,193h-7.09v9.44h8.24a3.68,3.68,0,0,0,3.07-1.4,5.06,5.06,0,0,0,1.1-3.18,4.38,4.38,0,0,0-1.57-3.56A5.69,5.69,0,0,0,185,193Z" transform="translate(-86.64 -164.8)"/><path class="aca1d4d2-e1ae-4e1d-905d-e32fa721868e" d="M220.64,188.63v17.81a11.38,11.38,0,0,1-1.51,5.83,10.73,10.73,0,0,1-4.12,4,13,13,0,0,1-12,0,10.65,10.65,0,0,1-4.14-4,11.38,11.38,0,0,1-1.51-5.83V188.63h4.46v17.44a7.34,7.34,0,0,0,3.67,6.47,6.89,6.89,0,0,0,3.5,1,7.41,7.41,0,0,0,3.67-1,7.13,7.13,0,0,0,2.7-2.64,7.35,7.35,0,0,0,1-3.83V188.63Z" transform="translate(-86.64 -164.8)"/><path class="aca1d4d2-e1ae-4e1d-905d-e32fa721868e" d="M224.18,188.67h18.18V193H228.63v7.62h11.46v4.29H228.63v8.37h13.73v4.29H224.18Z" transform="translate(-86.64 -164.8)"/><path class="a4d3e21d-2471-4d02-8252-0380ced837c4" d="M133.48,164.8l-13.81,28.65s-1,2.31-2.36,0-7.7-13-7.7-13l4.12,14s1.33,3-1.33,2.12-25.76-8.35-25.76-8.35l25,12.72s.93.72-.57,1.69-15.84,8.21-15.84,8.21l18.59-5.18s1-.61.12,1.94-12.84,38-12.84,38l16.18-36.35s1.27-2.9,2.6-.24l7.27,13.21L123.3,207s-.72-1.52,1.82-.67,24.71,7.63,24.71,7.63L126,202.06s-1.7-.61.12-1.58,14.41-8.36,14.41-8.36L124.88,197s-2.43.85-1.46-1.33S133.48,164.8,133.48,164.8Z" transform="translate(-86.64 -164.8)"/><path class="abcb3dc7-5720-4d37-9cf2-68b6fd2d093b" d="M125.12,206.3c-2.54-.85-1.82.67-1.82.67l3.88,15.32-7.27-13.21c-1.33-2.66-2.6.24-2.6.24l-6.62,14.88a24.18,24.18,0,0,0,30.08-13C134.32,209.17,126.56,206.78,125.12,206.3Z" transform="translate(-86.64 -164.8)"/><path class="abcb3dc7-5720-4d37-9cf2-68b6fd2d093b" d="M111.67,201,96,193a24.19,24.19,0,0,0,.23,17.37c3.26-1.66,13.61-6.9,14.86-7.72C112.6,201.69,111.67,201,111.67,201Z" transform="translate(-86.64 -164.8)"/><path class="abcb3dc7-5720-4d37-9cf2-68b6fd2d093b" d="M124.88,197l15.62-4.85s-12.59,7.39-14.41,8.36-.12,1.58-.12,1.58l15.38,7.65a23.87,23.87,0,0,0,1.47-8.32,24.14,24.14,0,0,0-14-21.93c-2.38,7.42-4.88,15.09-5.37,16.18C122.45,197.82,124.88,197,124.88,197Z" transform="translate(-86.64 -164.8)"/><path class="abcb3dc7-5720-4d37-9cf2-68b6fd2d093b" d="M113.73,194.48l-4.12-14s6.3,10.66,7.7,13,2.36,0,2.36,0l7.14-14.81a24.17,24.17,0,0,0-30.18,12.85c6.6,2.15,14.3,4.65,15.77,5.11C115.06,197.45,113.73,194.48,113.73,194.48Z" transform="translate(-86.64 -164.8)"/><path class="abcb3dc7-5720-4d37-9cf2-68b6fd2d093b" d="M113.85,205.69l-17.53,4.89a24.27,24.27,0,0,0,12.34,12.8c2.6-7.69,5-14.67,5.31-15.75C114.82,205.08,113.85,205.69,113.85,205.69Z" transform="translate(-86.64 -164.8)"/><path class="a201fa04-cd41-4c1f-b771-a26d69db93db" d="M86.64,188.25,96,193c.19-.52.4-1,.62-1.52Z" transform="translate(-86.64 -164.8)"/><path class="a201fa04-cd41-4c1f-b771-a26d69db93db" d="M95.26,210.87l1.06-.29c0-.07,0-.14-.08-.2Z" transform="translate(-86.64 -164.8)"/><path class="a201fa04-cd41-4c1f-b771-a26d69db93db" d="M133.48,164.8l-6.67,13.84c.67.25,1.34.52,2,.82C131.19,172,133.48,164.8,133.48,164.8Z" transform="translate(-86.64 -164.8)"/><path class="a201fa04-cd41-4c1f-b771-a26d69db93db" d="M149.83,213.93l-8.48-4.22c-.17.49-.37,1-.58,1.44Z" transform="translate(-86.64 -164.8)"/><path class="a201fa04-cd41-4c1f-b771-a26d69db93db" d="M101.13,245.67l9.56-21.47c-.69-.25-1.37-.52-2-.82Z" transform="translate(-86.64 -164.8)"/><path class="a4d3e21d-2471-4d02-8252-0380ced837c4" d="M124.1,218.81" transform="translate(-86.64 -164.8)"/></g></svg>